<svg width="129" height="124" viewBox="0 0 129 124" fill="none" xmlns="http://www.w3.org/2000/svg">
<path d="M32.8127 70.0629V96.4691C32.8127 97.8698 33.3692 99.2131 34.3596 100.204C35.35 101.194 36.6933 101.75 38.094 101.75H101.744L127.875 122.875V38.3754C127.875 36.9747 127.319 35.6314 126.328 34.641C125.338 33.6505 123.995 33.0941 122.594 33.0941H96.1877" fill="#FCF9F0"/>
<path d="M32.8127 70.0629V96.4691C32.8127 97.8698 33.3692 99.2131 34.3596 100.204C35.35 101.194 36.6933 101.75 38.094 101.75H101.744L127.875 122.875V38.3754C127.875 36.9747 127.319 35.6314 126.328 34.641C125.338 33.6505 123.995 33.0941 122.594 33.0941H96.1877" stroke="#1F1F1F" stroke-width="2" stroke-linecap="round" stroke-linejoin="round"/>
<path d="M27.2561 70.0629L1.12524 91.1879V6.68787C1.12524 5.28719 1.68166 3.94389 2.67209 2.95346C3.66251 1.96303 5.00582 1.40662 6.40649 1.40662H90.9065C92.3072 1.40662 93.6505 1.96303 94.6409 2.95346C95.6313 3.94389 96.1877 5.28719 96.1877 6.68787V64.7816C96.1877 66.1823 95.6313 67.5256 94.6409 68.516C93.6505 69.5064 92.3072 70.0629 90.9065 70.0629H27.2561Z" fill="#FCF9F0" stroke="black" stroke-width="2" stroke-linecap="round" stroke-linejoin="round"/>
</svg>
