<svg width="45" height="45" viewBox="0 0 45 45" fill="none" xmlns="http://www.w3.org/2000/svg">
<path d="M41.25 0H3.75003C1.64997 0 0 1.64997 0 3.75003V41.2501C0 43.35 1.64997 45 3.75003 45H21.0001H30.0001H41.2501C43.35 45 45 43.35 45 41.25V3.75003C45 1.64997 43.35 0 41.25 0ZM22.5 43.5V28.5H16.5V22.5H22.5V17.25C22.5 12.975 25.8 9.37503 30 9H36.75V15H30.7499C29.4749 15 28.4999 15.975 28.4999 17.25V22.5H36V28.5H28.5V43.5001H22.5V43.5ZM43.5 41.25C43.5 42.525 42.525 43.5 41.25 43.5H30V30H37.4999V21H30V17.2499C30 16.7999 30.2999 16.5 30.7499 16.5H38.25V7.49997H29.925C24.9 7.94997 21 12.225 21 17.2499V21H14.9999V30H21V43.5H3.75003C2.475 43.5 1.50003 42.525 1.50003 41.25V3.75003C1.50003 2.475 2.475 1.50003 3.75003 1.50003H41.2501C42.5251 1.50003 43.5001 2.475 43.5001 3.75003V41.25H43.5Z" fill="#FCF9F0"/>
</svg>
