<svg width="561" height="206" viewBox="0 0 561 206" fill="none" xmlns="http://www.w3.org/2000/svg">
<path d="M8.97 3.17999V96H74.62V78.84H29.38V3.17999H8.97ZM86.0305 3.17999V96H156.491V78.84H106.441V56.09H151.421V40.23H106.441V20.34H155.451V3.17999H86.0305ZM237.407 85.47L239.487 96H252.487V45.82H213.487V61.03H234.027C233.421 67.53 231.254 72.5133 227.527 75.98C223.887 79.36 218.687 81.05 211.927 81.05C207.334 81.05 203.434 80.1833 200.227 78.45C197.021 76.63 194.421 74.2467 192.427 71.3C190.434 68.3533 188.961 65.06 188.007 61.42C187.141 57.6933 186.707 53.88 186.707 49.98C186.707 45.9067 187.141 41.9633 188.007 38.15C188.961 34.3367 190.434 30.9567 192.427 28.01C194.421 24.9767 197.021 22.5933 200.227 20.86C203.434 19.04 207.334 18.13 211.927 18.13C216.867 18.13 221.071 19.43 224.537 22.03C228.004 24.63 230.344 28.53 231.557 33.73H251.057C250.537 28.4433 249.107 23.7633 246.767 19.69C244.427 15.6167 241.437 12.1933 237.797 9.42C234.244 6.64667 230.214 4.56666 225.707 3.17999C221.287 1.70666 216.694 0.969999 211.927 0.969999C204.821 0.969999 198.407 2.22667 192.687 4.74C187.054 7.25333 182.287 10.72 178.387 15.14C174.487 19.56 171.497 24.76 169.417 30.74C167.337 36.6333 166.297 43.0467 166.297 49.98C166.297 56.74 167.337 63.0667 169.417 68.96C171.497 74.7667 174.487 79.8367 178.387 84.17C182.287 88.5033 187.054 91.9267 192.687 94.44C198.407 96.8667 204.821 98.08 211.927 98.08C216.434 98.08 220.897 97.17 225.317 95.35C229.737 93.4433 233.767 90.15 237.407 85.47ZM292.37 60.12L304.46 26.06H304.72L316.42 60.12H292.37ZM294.32 3.17999L259.22 96H279.76L287.04 75.33H321.75L328.77 96H349.96L315.25 3.17999H294.32ZM357.964 3.17999V96H423.614V78.84H378.374V3.17999H357.964ZM97.37 203L122.33 110.18H102.31L87.1 174.14H86.84L70.98 110.18H51.87L35.75 173.36H35.49L20.8 110.18H0.39L24.96 203H45.63L61.1 139.82H61.36L77.09 203H97.37ZM152.144 152.17V126.04H174.504C179.184 126.04 182.694 127.08 185.034 129.16C187.374 131.153 188.544 134.403 188.544 138.91C188.544 143.59 187.374 146.97 185.034 149.05C182.694 151.13 179.184 152.17 174.504 152.17H152.144ZM131.734 110.18V203H152.144V166.73H172.554C177.667 166.73 181.35 167.857 183.604 170.11C185.857 172.363 187.33 175.917 188.024 180.77C188.544 184.497 188.934 188.397 189.194 192.47C189.454 196.543 190.147 200.053 191.274 203H211.684C210.73 201.7 209.994 200.14 209.474 198.32C209.04 196.413 208.694 194.42 208.434 192.34C208.26 190.26 208.13 188.223 208.044 186.23C207.957 184.237 207.87 182.503 207.784 181.03C207.61 178.69 207.264 176.35 206.744 174.01C206.31 171.67 205.574 169.547 204.534 167.64C203.494 165.647 202.15 163.957 200.504 162.57C198.857 161.097 196.777 160.013 194.264 159.32V159.06C199.464 156.98 203.19 153.947 205.444 149.96C207.784 145.973 208.954 141.25 208.954 135.79C208.954 132.237 208.304 128.943 207.004 125.91C205.79 122.79 203.97 120.06 201.544 117.72C199.204 115.38 196.344 113.56 192.964 112.26C189.67 110.873 185.944 110.18 181.784 110.18H131.734ZM225.552 110.18V203H245.962V110.18H225.552ZM284.432 127.34V203H304.842V127.34H332.662V110.18H256.612V127.34H284.432ZM343.365 110.18V203H363.775V110.18H343.365ZM381.704 110.18V203H400.814V140.86H401.074L439.684 203H460.094V110.18H440.984V172.45H440.724L401.984 110.18H381.704ZM545.142 192.47L547.222 203H560.222V152.82H521.222V168.03H541.762C541.155 174.53 538.988 179.513 535.262 182.98C531.622 186.36 526.422 188.05 519.662 188.05C515.068 188.05 511.168 187.183 507.962 185.45C504.755 183.63 502.155 181.247 500.162 178.3C498.168 175.353 496.695 172.06 495.742 168.42C494.875 164.693 494.442 160.88 494.442 156.98C494.442 152.907 494.875 148.963 495.742 145.15C496.695 141.337 498.168 137.957 500.162 135.01C502.155 131.977 504.755 129.593 507.962 127.86C511.168 126.04 515.068 125.13 519.662 125.13C524.602 125.13 528.805 126.43 532.272 129.03C535.738 131.63 538.078 135.53 539.292 140.73H558.792C558.272 135.443 556.842 130.763 554.502 126.69C552.162 122.617 549.172 119.193 545.532 116.42C541.978 113.647 537.948 111.567 533.442 110.18C529.022 108.707 524.428 107.97 519.662 107.97C512.555 107.97 506.142 109.227 500.422 111.74C494.788 114.253 490.022 117.72 486.122 122.14C482.222 126.56 479.232 131.76 477.152 137.74C475.072 143.633 474.032 150.047 474.032 156.98C474.032 163.74 475.072 170.067 477.152 175.96C479.232 181.767 482.222 186.837 486.122 191.17C490.022 195.503 494.788 198.927 500.422 201.44C506.142 203.867 512.555 205.08 519.662 205.08C524.168 205.08 528.632 204.17 533.052 202.35C537.472 200.443 541.502 197.15 545.142 192.47Z" fill="#FCF9F0"/>
</svg>
