<svg width="559" height="206" viewBox="0 0 559 206" fill="none" xmlns="http://www.w3.org/2000/svg">
<path d="M0.970001 3.17999V96H66.62V78.84H21.38V3.17999H0.970001ZM78.0305 3.17999V96H148.491V78.84H98.4405V56.09H143.421V40.23H98.4405V20.34H147.451V3.17999H78.0305ZM229.407 85.47L231.487 96H244.487V45.82H205.487V61.03H226.027C225.421 67.53 223.254 72.5133 219.527 75.98C215.887 79.36 210.687 81.05 203.927 81.05C199.334 81.05 195.434 80.1833 192.227 78.45C189.021 76.63 186.421 74.2467 184.427 71.3C182.434 68.3533 180.961 65.06 180.007 61.42C179.141 57.6933 178.707 53.88 178.707 49.98C178.707 45.9067 179.141 41.9633 180.007 38.15C180.961 34.3367 182.434 30.9567 184.427 28.01C186.421 24.9767 189.021 22.5933 192.227 20.86C195.434 19.04 199.334 18.13 203.927 18.13C208.867 18.13 213.071 19.43 216.537 22.03C220.004 24.63 222.344 28.53 223.557 33.73H243.057C242.537 28.4433 241.107 23.7633 238.767 19.69C236.427 15.6167 233.437 12.1933 229.797 9.42C226.244 6.64667 222.214 4.56666 217.707 3.17999C213.287 1.70666 208.694 0.969999 203.927 0.969999C196.821 0.969999 190.407 2.22667 184.687 4.74C179.054 7.25333 174.287 10.72 170.387 15.14C166.487 19.56 163.497 24.76 161.417 30.74C159.337 36.6333 158.297 43.0467 158.297 49.98C158.297 56.74 159.337 63.0667 161.417 68.96C163.497 74.7667 166.487 79.8367 170.387 84.17C174.287 88.5033 179.054 91.9267 184.687 94.44C190.407 96.8667 196.821 98.08 203.927 98.08C208.434 98.08 212.897 97.17 217.317 95.35C221.737 93.4433 225.767 90.15 229.407 85.47ZM284.37 60.12L296.46 26.06H296.72L308.42 60.12H284.37ZM286.32 3.17999L251.22 96H271.76L279.04 75.33H313.75L320.77 96H341.96L307.25 3.17999H286.32ZM349.964 3.17999V96H415.614V78.84H370.374V3.17999H349.964ZM0.970001 110.18V203H71.43V185.84H21.38V163.09H66.36V147.23H21.38V127.34H70.39V110.18H0.970001ZM85.2669 110.18V203H104.377V140.86H104.637L143.247 203H163.657V110.18H144.547V172.45H144.287L105.547 110.18H85.2669ZM248.704 192.47L250.784 203H263.784V152.82H224.784V168.03H245.324C244.718 174.53 242.551 179.513 238.824 182.98C235.184 186.36 229.984 188.05 223.224 188.05C218.631 188.05 214.731 187.183 211.524 185.45C208.318 183.63 205.718 181.247 203.724 178.3C201.731 175.353 200.258 172.06 199.304 168.42C198.438 164.693 198.004 160.88 198.004 156.98C198.004 152.907 198.438 148.963 199.304 145.15C200.258 141.337 201.731 137.957 203.724 135.01C205.718 131.977 208.318 129.593 211.524 127.86C214.731 126.04 218.631 125.13 223.224 125.13C228.164 125.13 232.368 126.43 235.834 129.03C239.301 131.63 241.641 135.53 242.854 140.73H262.354C261.834 135.443 260.404 130.763 258.064 126.69C255.724 122.617 252.734 119.193 249.094 116.42C245.541 113.647 241.511 111.567 237.004 110.18C232.584 108.707 227.991 107.97 223.224 107.97C216.118 107.97 209.704 109.227 203.984 111.74C198.351 114.253 193.584 117.72 189.684 122.14C185.784 126.56 182.794 131.76 180.714 137.74C178.634 143.633 177.594 150.047 177.594 156.98C177.594 163.74 178.634 170.067 180.714 175.96C182.794 181.767 185.784 186.837 189.684 191.17C193.584 195.503 198.351 198.927 203.984 201.44C209.704 203.867 216.118 205.08 223.224 205.08C227.731 205.08 232.194 204.17 236.614 202.35C241.034 200.443 245.064 197.15 248.704 192.47ZM280.267 110.18V203H345.917V185.84H300.677V110.18H280.267ZM357.327 110.18V203H377.737V110.18H357.327ZM409.577 172.19H389.817C389.731 177.91 390.771 182.85 392.937 187.01C395.104 191.17 398.007 194.593 401.647 197.28C405.374 199.967 409.621 201.917 414.387 203.13C419.241 204.43 424.224 205.08 429.337 205.08C435.664 205.08 441.211 204.343 445.977 202.87C450.831 201.397 454.861 199.36 458.067 196.76C461.361 194.073 463.831 190.91 465.477 187.27C467.124 183.63 467.947 179.687 467.947 175.44C467.947 170.24 466.821 165.993 464.567 162.7C462.401 159.32 459.801 156.633 456.767 154.64C453.734 152.647 450.657 151.217 447.537 150.35C444.504 149.397 442.121 148.747 440.387 148.4C434.581 146.927 429.857 145.713 426.217 144.76C422.664 143.807 419.847 142.853 417.767 141.9C415.774 140.947 414.431 139.907 413.737 138.78C413.044 137.653 412.697 136.18 412.697 134.36C412.697 132.367 413.131 130.72 413.997 129.42C414.864 128.12 415.947 127.037 417.247 126.17C418.634 125.303 420.151 124.697 421.797 124.35C423.444 124.003 425.091 123.83 426.737 123.83C429.251 123.83 431.547 124.047 433.627 124.48C435.794 124.913 437.701 125.65 439.347 126.69C440.994 127.73 442.294 129.16 443.247 130.98C444.287 132.8 444.894 135.097 445.067 137.87H464.827C464.827 132.497 463.787 127.947 461.707 124.22C459.714 120.407 456.984 117.287 453.517 114.86C450.051 112.433 446.064 110.7 441.557 109.66C437.137 108.533 432.501 107.97 427.647 107.97C423.487 107.97 419.327 108.533 415.167 109.66C411.007 110.787 407.281 112.52 403.987 114.86C400.694 117.2 398.007 120.147 395.927 123.7C393.934 127.167 392.937 131.283 392.937 136.05C392.937 140.297 393.717 143.937 395.277 146.97C396.924 149.917 399.047 152.387 401.647 154.38C404.247 156.373 407.194 158.02 410.487 159.32C413.781 160.533 417.161 161.573 420.627 162.44C424.007 163.393 427.344 164.26 430.637 165.04C433.931 165.82 436.877 166.73 439.477 167.77C442.077 168.81 444.157 170.11 445.717 171.67C447.364 173.23 448.187 175.267 448.187 177.78C448.187 180.12 447.581 182.07 446.367 183.63C445.154 185.103 443.637 186.273 441.817 187.14C439.997 188.007 438.047 188.613 435.967 188.96C433.887 189.22 431.937 189.35 430.117 189.35C427.431 189.35 424.831 189.047 422.317 188.44C419.804 187.747 417.594 186.75 415.687 185.45C413.867 184.063 412.394 182.287 411.267 180.12C410.141 177.953 409.577 175.31 409.577 172.19ZM480.091 110.18V203H500.501V162.96H538.071V203H558.481V110.18H538.071V145.8H500.501V110.18H480.091Z" fill="#FCF9F0"/>
</svg>
