<svg width="154" height="73" viewBox="0 0 154 73" fill="none" xmlns="http://www.w3.org/2000/svg">
<path d="M3.07 0.579999V22H18.22V18.04H7.78V0.579999H3.07ZM20.8532 0.579999V22H37.1132V18.04H25.5632V12.79H35.9432V9.13H25.5632V4.54H36.8732V0.579999H20.8532ZM55.7863 19.57L56.2663 22H59.2663V10.42H50.2663V13.93H55.0063C54.8663 15.43 54.3663 16.58 53.5063 17.38C52.6663 18.16 51.4663 18.55 49.9063 18.55C48.8463 18.55 47.9463 18.35 47.2063 17.95C46.4663 17.53 45.8663 16.98 45.4063 16.3C44.9463 15.62 44.6063 14.86 44.3863 14.02C44.1863 13.16 44.0863 12.28 44.0863 11.38C44.0863 10.44 44.1863 9.53 44.3863 8.65C44.6063 7.77 44.9463 6.99 45.4063 6.31C45.8663 5.61 46.4663 5.06 47.2063 4.66C47.9463 4.24 48.8463 4.03 49.9063 4.03C51.0463 4.03 52.0163 4.33 52.8163 4.93C53.6163 5.53 54.1563 6.43 54.4363 7.63H58.9363C58.8163 6.41 58.4863 5.33 57.9463 4.39C57.4063 3.45 56.7163 2.66 55.8763 2.02C55.0563 1.38 54.1263 0.899999 53.0863 0.579999C52.0663 0.239999 51.0063 0.0699998 49.9063 0.0699998C48.2663 0.0699998 46.7863 0.36 45.4663 0.939999C44.1663 1.52 43.0663 2.32 42.1663 3.34C41.2663 4.36 40.5763 5.56 40.0963 6.94C39.6163 8.3 39.3763 9.78 39.3763 11.38C39.3763 12.94 39.6163 14.4 40.0963 15.76C40.5763 17.1 41.2663 18.27 42.1663 19.27C43.0663 20.27 44.1663 21.06 45.4663 21.64C46.7863 22.2 48.2663 22.48 49.9063 22.48C50.9463 22.48 51.9763 22.27 52.9963 21.85C54.0163 21.41 54.9463 20.65 55.7863 19.57ZM68.47 13.72L71.26 5.86H71.32L74.02 13.72H68.47ZM68.92 0.579999L60.82 22H65.56L67.24 17.23H75.25L76.87 22H81.76L73.75 0.579999H68.92ZM83.6071 0.579999V22H98.7571V18.04H88.3171V0.579999H83.6071ZM3.07 25.58V47H19.33V43.04H7.78V37.79H18.16V34.13H7.78V29.54H19.09V25.58H3.07ZM22.5231 25.58V47H26.9331V32.66H26.9931L35.9031 47H40.6131V25.58H36.2031V39.95H36.1431L27.2031 25.58H22.5231ZM60.2395 44.57L60.7195 47H63.7195V35.42H54.7195V38.93H59.4595C59.3195 40.43 58.8195 41.58 57.9595 42.38C57.1195 43.16 55.9195 43.55 54.3595 43.55C53.2995 43.55 52.3995 43.35 51.6595 42.95C50.9195 42.53 50.3195 41.98 49.8595 41.3C49.3995 40.62 49.0595 39.86 48.8395 39.02C48.6395 38.16 48.5395 37.28 48.5395 36.38C48.5395 35.44 48.6395 34.53 48.8395 33.65C49.0595 32.77 49.3995 31.99 49.8595 31.31C50.3195 30.61 50.9195 30.06 51.6595 29.66C52.3995 29.24 53.2995 29.03 54.3595 29.03C55.4995 29.03 56.4695 29.33 57.2695 29.93C58.0695 30.53 58.6095 31.43 58.8895 32.63H63.3895C63.2695 31.41 62.9395 30.33 62.3995 29.39C61.8595 28.45 61.1695 27.66 60.3295 27.02C59.5095 26.38 58.5795 25.9 57.5395 25.58C56.5195 25.24 55.4595 25.07 54.3595 25.07C52.7195 25.07 51.2395 25.36 49.9195 25.94C48.6195 26.52 47.5195 27.32 46.6195 28.34C45.7195 29.36 45.0295 30.56 44.5495 31.94C44.0695 33.3 43.8295 34.78 43.8295 36.38C43.8295 37.94 44.0695 39.4 44.5495 40.76C45.0295 42.1 45.7195 43.27 46.6195 44.27C47.5195 45.27 48.6195 46.06 49.9195 46.64C51.2395 47.2 52.7195 47.48 54.3595 47.48C55.3995 47.48 56.4295 47.27 57.4495 46.85C58.4695 46.41 59.3995 45.65 60.2395 44.57ZM67.5231 25.58V47H82.6731V43.04H72.2331V25.58H67.5231ZM85.3063 25.58V47H90.0163V25.58H85.3063ZM97.364 39.89H92.804C92.784 41.21 93.024 42.35 93.524 43.31C94.024 44.27 94.694 45.06 95.534 45.68C96.394 46.3 97.374 46.75 98.474 47.03C99.594 47.33 100.744 47.48 101.924 47.48C103.384 47.48 104.664 47.31 105.764 46.97C106.884 46.63 107.814 46.16 108.554 45.56C109.314 44.94 109.884 44.21 110.264 43.37C110.644 42.53 110.834 41.62 110.834 40.64C110.834 39.44 110.574 38.46 110.054 37.7C109.554 36.92 108.954 36.3 108.254 35.84C107.554 35.38 106.844 35.05 106.124 34.85C105.424 34.63 104.874 34.48 104.474 34.4C103.134 34.06 102.044 33.78 101.204 33.56C100.384 33.34 99.734 33.12 99.254 32.9C98.794 32.68 98.484 32.44 98.324 32.18C98.164 31.92 98.084 31.58 98.084 31.16C98.084 30.7 98.184 30.32 98.384 30.02C98.584 29.72 98.834 29.47 99.134 29.27C99.454 29.07 99.804 28.93 100.184 28.85C100.564 28.77 100.944 28.73 101.324 28.73C101.904 28.73 102.434 28.78 102.914 28.88C103.414 28.98 103.854 29.15 104.234 29.39C104.614 29.63 104.914 29.96 105.134 30.38C105.374 30.8 105.514 31.33 105.554 31.97H110.114C110.114 30.73 109.874 29.68 109.394 28.82C108.934 27.94 108.304 27.22 107.504 26.66C106.704 26.1 105.784 25.7 104.744 25.46C103.724 25.2 102.654 25.07 101.534 25.07C100.574 25.07 99.614 25.2 98.654 25.46C97.694 25.72 96.834 26.12 96.074 26.66C95.314 27.2 94.694 27.88 94.214 28.7C93.754 29.5 93.524 30.45 93.524 31.55C93.524 32.53 93.704 33.37 94.064 34.07C94.444 34.75 94.934 35.32 95.534 35.78C96.134 36.24 96.814 36.62 97.574 36.92C98.334 37.2 99.114 37.44 99.914 37.64C100.694 37.86 101.464 38.06 102.224 38.24C102.984 38.42 103.664 38.63 104.264 38.87C104.864 39.11 105.344 39.41 105.704 39.77C106.084 40.13 106.274 40.6 106.274 41.18C106.274 41.72 106.134 42.17 105.854 42.53C105.574 42.87 105.224 43.14 104.804 43.34C104.384 43.54 103.934 43.68 103.454 43.76C102.974 43.82 102.524 43.85 102.104 43.85C101.484 43.85 100.884 43.78 100.304 43.64C99.724 43.48 99.214 43.25 98.774 42.95C98.354 42.63 98.014 42.22 97.754 41.72C97.494 41.22 97.364 40.61 97.364 39.89ZM113.636 25.58V47H118.346V37.76H127.016V47H131.726V25.58H127.016V33.8H118.346V25.58H113.636ZM8.47 63.72L11.26 55.86H11.32L14.02 63.72H8.47ZM8.92 50.58L0.82 72H5.56L7.24 67.23H15.25L16.87 72H21.76L13.75 50.58H8.92ZM37.8871 57.78H42.4471C42.3071 56.54 41.9671 55.44 41.4271 54.48C40.8871 53.52 40.1971 52.72 39.3571 52.08C38.5371 51.42 37.5971 50.92 36.5371 50.58C35.4971 50.24 34.3871 50.07 33.2071 50.07C31.5671 50.07 30.0871 50.36 28.7671 50.94C27.4671 51.52 26.3671 52.32 25.4671 53.34C24.5671 54.36 23.8771 55.56 23.3971 56.94C22.9171 58.3 22.6771 59.78 22.6771 61.38C22.6771 62.94 22.9171 64.4 23.3971 65.76C23.8771 67.1 24.5671 68.27 25.4671 69.27C26.3671 70.27 27.4671 71.06 28.7671 71.64C30.0871 72.2 31.5671 72.48 33.2071 72.48C34.5271 72.48 35.7371 72.28 36.8371 71.88C37.9371 71.48 38.8971 70.9 39.7171 70.14C40.5371 69.38 41.1971 68.46 41.6971 67.38C42.1971 66.3 42.5071 65.09 42.6271 63.75H38.0671C37.8871 65.19 37.3871 66.35 36.5671 67.23C35.7671 68.11 34.6471 68.55 33.2071 68.55C32.1471 68.55 31.2471 68.35 30.5071 67.95C29.7671 67.53 29.1671 66.98 28.7071 66.3C28.2471 65.62 27.9071 64.86 27.6871 64.02C27.4871 63.16 27.3871 62.28 27.3871 61.38C27.3871 60.44 27.4871 59.53 27.6871 58.65C27.9071 57.77 28.2471 56.99 28.7071 56.31C29.1671 55.61 29.7671 55.06 30.5071 54.66C31.2471 54.24 32.1471 54.03 33.2071 54.03C33.7871 54.03 34.3371 54.13 34.8571 54.33C35.3971 54.51 35.8771 54.77 36.2971 55.11C36.7171 55.45 37.0671 55.85 37.3471 56.31C37.6271 56.75 37.8071 57.24 37.8871 57.78ZM51.2434 63.72L54.0334 55.86H54.0934L56.7934 63.72H51.2434ZM51.6934 50.58L43.5934 72H48.3334L50.0134 67.23H58.0234L59.6434 72H64.5334L56.5234 50.58H51.6934ZM71.0905 68.04V54.54H74.4505C75.6105 54.54 76.5805 54.71 77.3605 55.05C78.1605 55.37 78.8005 55.84 79.2805 56.46C79.7605 57.08 80.1005 57.83 80.3005 58.71C80.5205 59.57 80.6305 60.54 80.6305 61.62C80.6305 62.8 80.4805 63.8 80.1805 64.62C79.8805 65.44 79.4805 66.11 78.9805 66.63C78.4805 67.13 77.9105 67.49 77.2705 67.71C76.6305 67.93 75.9705 68.04 75.2905 68.04H71.0905ZM66.3805 50.58V72H75.6205C77.2605 72 78.6805 71.73 79.8805 71.19C81.1005 70.63 82.1105 69.87 82.9105 68.91C83.7305 67.95 84.3405 66.81 84.7405 65.49C85.1405 64.17 85.3405 62.73 85.3405 61.17C85.3405 59.39 85.0905 57.84 84.5905 56.52C84.1105 55.2 83.4305 54.1 82.5505 53.22C81.6905 52.34 80.6605 51.68 79.4605 51.24C78.2805 50.8 77.0005 50.58 75.6205 50.58H66.3805ZM88.6169 50.58V72H104.877V68.04H93.3269V62.79H103.707V59.13H93.3269V54.54H104.637V50.58H88.6169ZM108.07 50.58V72H112.48V56.97H112.54L117.79 72H121.42L126.67 56.82H126.73V72H131.14V50.58H124.51L119.77 65.31H119.71L114.7 50.58H108.07ZM140.837 63.66V72H145.547V63.78L153.497 50.58H148.247L143.267 59.04L138.257 50.58H132.977L140.837 63.66Z" fill="#BB221D"/>
</svg>
